<svg width="82" height="173" viewBox="0 0 82 173" fill="none" xmlns="http://www.w3.org/2000/svg">
<path d="M15.3841 138.994L3.29468 156.957L14.5503 168.237L16.0094 165.312L13.5081 159.464C13.5081 159.464 13.925 154.033 15.3841 152.571C16.8432 151.109 23.3047 142.336 23.3047 142.336L15.3841 138.994Z" fill="#FFB8B8"/>
<path d="M30.8086 80.9273C30.8086 80.9273 28.516 84.5631 33.3103 100.229C33.3103 100.229 10.9486 138.048 14.492 140.555C18.0355 143.061 27.6243 148.608 30.1257 146.937C32.6268 145.266 50.8186 88.6556 50.8186 88.6556L30.8086 80.9273Z" fill="#2F2E41"/>
<path d="M5.48331 153.72L1.83563 157.375C-0.0403013 159.255 -1.29094 161.97 2.25249 164.268C5.79596 166.566 18.0938 175.13 22.2625 172.414C26.4314 169.699 17.2601 167.192 17.2601 167.192C17.2601 167.192 15.7435 161.558 14.9385 162.808C14.1335 164.059 14.1335 166.566 14.1335 166.566L5.48331 153.72Z" fill="#2F2E41"/>
<path d="M49.5679 148.811C49.5679 148.811 56.2379 161.135 56.2379 162.597C56.2379 164.059 55.8211 168.237 55.8211 168.237L68.5357 171.37L72.9129 169.281L71.4539 165.521C71.4539 165.521 63.5332 162.806 61.8657 157.584C60.1982 152.362 58.3222 146.931 58.3222 146.931L49.5679 148.811Z" fill="#FFB8B8"/>
<path d="M41.8557 26.2022C37.0206 26.2022 33.1014 22.2745 33.1014 17.4293C33.1014 12.5843 37.0206 8.65662 41.8557 8.65662C46.6905 8.65662 50.61 12.5843 50.61 17.4293C50.61 22.2745 46.6905 26.2022 41.8557 26.2022Z" fill="#FFB8B8"/>
<path d="M44.1486 24.9489L39.9688 36.9832L30.8086 32.8862C30.8086 32.8862 37.0618 23.2779 37.0618 22.0246L44.1486 24.9489Z" fill="#FFB8B8"/>
<path d="M45.3993 67.7681H34.3518C34.3518 67.7681 26.4314 79.8827 31.0168 92.6243C31.7191 94.5752 32.4161 97.3085 33.112 100.54C34.7122 107.971 36.3054 118.037 37.938 127.287C40.2311 140.28 42.6024 151.663 45.1802 151.869C50.3912 152.287 60.5243 152.217 60.5243 150.129C60.5243 148.04 53.7368 87.6113 53.7368 87.6113L52.2775 85.1047L52.0017 74.1868C51.9583 72.4638 51.2424 70.8266 50.0082 69.6266C48.7736 68.4268 47.1191 67.7596 45.3993 67.7681Z" fill="#2F2E41"/>
<path d="M56.3422 162.493C56.3422 162.493 53.945 166.566 54.5704 169.49C55.1957 172.414 56.2379 171.996 60.8236 172.414C65.4093 172.832 81.0422 172.832 81.0422 169.908C81.0422 166.983 68.8471 163.186 68.7957 164.354C68.7443 165.521 68.3272 167.819 69.5779 168.237C70.8286 168.654 69.6822 168.341 69.6822 168.341L56.3422 162.493Z" fill="#2F2E41"/>
<path d="M44.1468 93.839C44.1468 93.839 45.0535 108.677 51.1011 104.259C57.1487 99.8422 48.7442 91.8631 48.7442 91.8631L44.1468 93.839Z" fill="white"/>
<path d="M32.0766 74.2975C31.7861 74.4291 31.4653 74.4785 31.1487 74.4408C30.8321 74.4035 30.5316 74.2801 30.2796 74.0844C29.9136 73.7965 29.6701 73.3809 29.5975 72.9206C28.7234 67.8693 27.6589 53.8665 27.0456 46.7854C26.2763 37.9003 30.1195 31.0189 30.1515 30.9768L32.4164 27.8561C32.6517 27.5303 32.9901 27.2936 33.3766 27.1847C33.7632 27.0761 34.175 27.1017 34.5451 27.2574C34.5451 27.2574 41.6158 34.6087 41.6419 34.8924C41.7526 36.1113 42.5942 38.8122 46.9804 43.2074C51.7794 48.0167 51.8061 52.214 51.6998 53.3861C51.693 53.4629 51.6895 53.54 51.6892 53.6169C51.6983 54.1429 51.6269 54.6668 51.4777 55.171C49.4677 61.5215 51.0418 69.1247 53.5697 77.0611C53.6657 77.4196 53.6478 77.7993 53.5188 78.1472C53.3899 78.4951 53.1561 78.7945 52.8497 79.0035C52.1116 79.5068 52.9969 78.76 52.7337 79.0832C50.9913 81.2225 48.4843 78.2411 45.6163 74.9877C44.6174 73.8542 43.485 72.5697 42.1503 71.2325C40.3157 69.3937 36.8098 73.5896 35.1796 73.5896C34.1069 73.6025 33.0494 73.8439 32.0766 74.2975Z" fill="#3CB371"/>
<path d="M31.1046 34.2169C31.1046 34.2169 26.5257 38.0863 29.127 43.1049C31.7285 48.1232 31.3825 51.8246 31.3825 51.8246C31.3825 51.8246 32.0751 86.2997 40.2035 84.6246L43.9007 94.8539L50.5783 92.4388L46.7169 83.4163C46.7169 83.4163 49.8096 83.2235 48.9058 81.1118C48.2711 79.6289 44.8518 63.5342 42.8723 54.0845C42.0334 50.0803 41.4533 47.2693 41.4533 47.2693C41.4533 47.2693 38.8224 33.1728 31.1046 34.2169Z" fill="#3CB371"/>
<path opacity="0.2" d="M30.1441 51.7363L32.7187 68.6637L31.3296 50.5636L30.1441 51.7363Z" fill="black"/>
<path d="M51.4069 13.5425C51.4069 13.5425 52.8788 2.06451 40.87 5.82829C40.87 5.82829 32.2934 4.25119 29.4806 15.0018L26.6326 26.2714L28.0208 25.5143L28.6679 26.9316L30.917 27.5024L31.8795 25.5882L32.3451 27.9127L50.7669 29.7532C50.7669 29.7532 42.516 24.8636 42.3853 16.1L43.9568 17.7643L51.4069 13.5425Z" fill="#2F2E41"/>
<path opacity="0.2" d="M37.7074 127.947L33.5996 100.519L36.9405 130.129L37.7074 127.947Z" fill="black"/>
<path d="M30.9942 10.5825C28.4358 10.5825 26.3621 8.50445 26.3621 5.9407C26.3621 3.37696 28.4358 1.29889 30.9942 1.29889C33.5523 1.29889 35.6263 3.37696 35.6263 5.9407C35.6263 8.50445 33.5523 10.5825 30.9942 10.5825Z" fill="#2F2E41"/>
<path d="M35.7673 4.80425C35.691 3.62658 35.1699 2.5222 34.3095 1.71628C33.4495 0.910071 32.3148 0.462961 31.1373 0.465905C31.2327 0.453542 31.3276 0.438828 31.4251 0.432646C32.0326 0.393204 32.6415 0.473854 33.2175 0.670476C33.7935 0.867099 34.3254 1.17528 34.7825 1.57794C35.2395 1.98031 35.6131 2.46922 35.8816 3.0164C36.1501 3.56359 36.3084 4.15846 36.3474 4.76687C36.3865 5.37557 36.3054 5.98575 36.1092 6.56296C35.9127 7.13987 35.6049 7.67264 35.2028 8.13064C34.801 8.58834 34.3131 8.96246 33.7667 9.23119C33.2207 9.49993 32.6268 9.65828 32.0196 9.69714C31.9221 9.70361 31.8261 9.70097 31.7297 9.70126C32.8982 9.55291 33.9662 8.96393 34.7164 8.05411C35.4663 7.14429 35.8422 5.98222 35.7673 4.80425Z" fill="#2F2E41"/>
<path opacity="0.2" d="M44.2132 57.0112L48.2887 78.9001L43.0063 54.7236L44.2132 57.0112Z" fill="black"/>
<path d="M43.9591 23.7515L46.3345 25.5461C48.7807 24.3122 50.6156 21.458 51.2824 18.7338L48.694 17.4249C48.4905 20.2035 46.5222 22.0508 43.9591 23.7515Z" fill="#EDD6D6"/>
<path d="M42.9728 17.8205H48.8911C48.9437 17.8205 48.9936 17.7996 49.0306 17.7625C49.0676 17.7254 49.0885 17.6751 49.0885 17.6227C49.0885 17.5703 49.0676 17.5199 49.0306 17.4828C48.9936 17.4458 48.9437 17.4249 48.8911 17.4249H42.9728C42.9205 17.4249 42.8703 17.4458 42.8333 17.4828C42.7962 17.5199 42.7754 17.5703 42.7754 17.6227C42.7754 17.6751 42.7962 17.7254 42.8333 17.7625C42.8703 17.7996 42.9205 17.8205 42.9728 17.8205Z" fill="white"/>
<path d="M44.1565 23.7515C44.1885 23.7515 44.2202 23.7435 44.2487 23.7282C44.2772 23.7132 44.3016 23.6911 44.3198 23.6647C44.3377 23.6379 44.3489 23.607 44.3524 23.5749C44.3559 23.5428 44.3515 23.5101 44.3395 23.4804L42.761 19.5262C42.7516 19.502 42.7372 19.48 42.7193 19.4614C42.7011 19.4429 42.6796 19.4279 42.6558 19.4176C42.632 19.4073 42.6065 19.402 42.5804 19.4017C42.5545 19.4011 42.5287 19.4061 42.5046 19.4155C42.4805 19.4252 42.4587 19.4396 42.4399 19.4579C42.4214 19.4758 42.4068 19.4976 42.3965 19.5215C42.3865 19.5456 42.3809 19.5712 42.3806 19.5971C42.3806 19.623 42.3853 19.6489 42.395 19.673L43.9732 23.627C43.9879 23.6638 44.0132 23.6953 44.0458 23.7173C44.0784 23.7394 44.1169 23.7515 44.1565 23.7515Z" fill="white"/>
<path d="M42.5745 20.1564C41.775 20.1564 41.127 19.2472 41.127 18.1257C41.127 17.004 41.775 16.0947 42.5745 16.0947C43.374 16.0947 44.022 17.004 44.022 18.1257C44.022 19.2472 43.374 20.1564 42.5745 20.1564Z" fill="#FFB8B8"/>
</svg>
