<svg width="626" height="536" viewBox="0 0 626 536" fill="none" xmlns="http://www.w3.org/2000/svg">
<path d="M481.938 200.541L541.323 232.339L540.637 233.62L481.252 201.823L481.938 200.541Z" fill="#3F3D56"/>
<path d="M26.5592 472.456C196.132 418.754 349.895 421.615 449.027 433.472C556.422 446.316 624.57 472.182 625.246 472.442L625.74 471.156C625.063 470.895 556.754 444.968 449.19 432.103C385.918 424.544 322.079 422.911 258.504 427.223C179.581 432.567 101.576 447.311 26.1436 471.142L26.5592 472.456Z" fill="#3F3D56"/>
<path d="M407.768 457.279C407.768 457.279 407.293 447.31 397.544 448.469L407.768 457.279Z" fill="#3F3D56"/>
<path d="M410.523 447.792C407.828 447.792 405.644 445.607 405.644 442.91C405.644 440.214 407.828 438.029 410.523 438.029C413.219 438.029 415.403 440.214 415.403 442.91C415.403 445.607 413.219 447.792 410.523 447.792Z" fill="#6C63FF"/>
<path d="M409.94 451.131H411.317V460.776H409.94V451.131Z" fill="#3F3D56"/>
<path d="M230.092 459.346C230.092 459.346 229.617 449.377 219.867 450.536L230.092 459.346Z" fill="#3F3D56"/>
<path d="M232.847 449.859C230.152 449.859 227.967 447.674 227.967 444.977C227.967 442.281 230.152 440.096 232.847 440.096C235.541 440.096 237.726 442.281 237.726 444.977C237.726 447.674 235.541 449.859 232.847 449.859Z" fill="#6C63FF"/>
<path d="M232.263 453.198H233.641V462.843H232.263V453.198Z" fill="#3F3D56"/>
<path d="M522.776 442.122C522.776 442.122 522.301 432.153 512.551 433.312L522.776 442.122Z" fill="#3F3D56"/>
<path d="M525.531 432.635C522.836 432.635 520.652 430.45 520.652 427.753C520.652 425.058 522.836 422.872 525.531 422.872C528.226 422.872 530.411 425.058 530.411 427.753C530.411 430.45 528.226 432.635 525.531 432.635Z" fill="#6C63FF"/>
<path d="M524.947 435.974H526.325V445.619H524.947V435.974Z" fill="#3F3D56"/>
<path d="M447.711 429.032C447.711 429.032 447.236 419.063 437.487 420.222L447.711 429.032Z" fill="#3F3D56"/>
<path d="M450.466 419.545C447.771 419.545 445.587 417.36 445.587 414.664C445.587 411.968 447.771 409.782 450.466 409.782C453.161 409.782 455.346 411.968 455.346 414.664C455.346 417.36 453.161 419.545 450.466 419.545Z" fill="#6C63FF"/>
<path d="M449.883 422.884H451.26V432.529H449.883V422.884Z" fill="#3F3D56"/>
<path d="M259.705 447.634C259.705 447.634 259.229 437.665 249.48 438.823L259.705 447.634Z" fill="#3F3D56"/>
<path d="M262.459 438.147C259.765 438.147 257.58 435.962 257.58 433.265C257.58 430.569 259.765 428.384 262.459 428.384C265.154 428.384 267.339 430.569 267.339 433.265C267.339 435.962 265.154 438.147 262.459 438.147Z" fill="#6C63FF"/>
<path d="M261.876 441.486H263.253V451.131H261.876V441.486Z" fill="#3F3D56"/>
<path d="M47.9379 427.649L19.5935 469.694L45.9831 496.094L49.404 489.25L43.5396 475.561C43.5396 475.561 44.517 462.849 47.9379 459.427C51.3588 456.005 66.5084 435.471 66.5084 435.471L47.9379 427.649Z" fill="#FFB8B8"/>
<path d="M84.1016 291.737C84.1016 291.737 78.7266 300.247 89.967 336.914C89.967 336.914 37.5385 425.435 45.8463 431.302C54.1542 437.169 76.6357 450.152 82.5005 446.241C88.3645 442.33 131.016 309.826 131.016 309.826L84.1016 291.737Z" fill="#2F2E41"/>
<path d="M24.7248 462.116L16.1726 470.672C11.7743 475.072 8.8421 481.427 17.1499 486.805C25.4578 492.183 54.2909 512.228 64.0649 505.872C73.8391 499.516 52.3362 493.65 52.3362 493.65C52.3362 493.65 48.7806 480.461 46.8932 483.389C45.0058 486.317 45.0058 492.183 45.0058 492.183L24.7248 462.116Z" fill="#2F2E41"/>
<path d="M128.084 450.627C128.084 450.627 143.722 479.472 143.722 482.894C143.722 486.317 142.745 496.094 142.745 496.094L172.556 503.427L182.818 498.539L179.398 489.739C179.398 489.739 160.827 483.383 156.917 471.161C153.008 458.938 148.609 446.227 148.609 446.227L128.084 450.627Z" fill="#FFB8B8"/>
<path d="M110.002 163.647C98.6663 163.647 89.4774 154.453 89.4774 143.113C89.4774 131.773 98.6663 122.579 110.002 122.579C121.338 122.579 130.528 131.773 130.528 143.113C130.528 154.453 121.338 163.647 110.002 163.647Z" fill="#FFB8B8"/>
<path d="M115.378 160.713L105.578 188.881L84.1016 179.291C84.1016 179.291 98.7627 156.802 98.7627 153.869L115.378 160.713Z" fill="#FFB8B8"/>
<path d="M118.311 260.936H92.409C92.409 260.936 73.8391 289.292 84.5899 319.115C86.2365 323.681 87.8707 330.079 89.5022 337.642C93.254 355.036 96.9894 378.597 100.817 400.247C106.193 430.659 111.753 457.301 117.797 457.785C130.014 458.762 153.772 458.599 153.772 453.71C153.772 448.821 137.858 307.382 137.858 307.382L134.437 301.514L133.79 275.96C133.689 271.927 132.01 268.095 129.116 265.286C126.222 262.478 122.343 260.916 118.311 260.936Z" fill="#2F2E41"/>
<path d="M143.967 482.649C143.967 482.649 138.347 492.183 139.813 499.028C141.279 505.872 143.722 504.894 154.474 505.872C165.225 506.85 201.878 506.85 201.878 500.005C201.878 493.161 173.286 484.273 173.165 487.006C173.045 489.739 172.067 495.117 174.999 496.094C177.931 497.072 175.244 496.339 175.244 496.339L143.967 482.649Z" fill="#2F2E41"/>
<path d="M115.374 321.958C115.374 321.958 117.5 356.687 131.679 346.348C145.858 336.009 126.153 317.333 126.153 317.333L115.374 321.958Z" fill="white"/>
<path d="M87.0746 276.219C86.3935 276.527 85.6415 276.643 84.8991 276.555C84.1567 276.467 83.4522 276.178 82.8613 275.72C82.0032 275.047 81.4323 274.074 81.2622 272.996C79.2128 261.173 76.717 228.398 75.2791 211.824C73.4755 191.027 82.486 174.921 82.5611 174.822L87.8714 167.518C88.423 166.755 89.2164 166.201 90.1227 165.946C91.0289 165.692 91.9945 165.752 92.8622 166.117C92.8622 166.117 109.44 183.323 109.501 183.987C109.761 186.84 111.734 193.162 122.018 203.449C133.269 214.706 133.332 224.53 133.083 227.274C133.067 227.453 133.058 227.634 133.058 227.814C133.079 229.045 132.912 230.271 132.562 231.451C127.849 246.315 131.54 264.112 137.467 282.688C137.692 283.527 137.65 284.416 137.347 285.23C137.045 286.044 136.497 286.745 135.779 287.234C134.048 288.412 136.124 286.664 135.507 287.421C131.421 292.428 125.544 285.45 118.819 277.835C116.477 275.182 113.823 272.175 110.693 269.045C106.392 264.741 98.1718 274.562 94.3497 274.562C91.8347 274.593 89.3555 275.157 87.0746 276.219Z" fill="#3CB371"/>
<path d="M84.7958 182.406C84.7958 182.406 74.0601 191.463 80.159 203.209C86.2585 214.955 85.4473 223.619 85.4473 223.619C85.4473 223.619 87.0712 304.312 106.129 300.391L114.797 324.334L130.453 318.681L121.4 297.563C121.4 297.563 128.651 297.111 126.532 292.169C125.044 288.698 117.027 251.026 112.386 228.908C110.419 219.536 109.059 212.957 109.059 212.957C109.059 212.957 102.891 179.962 84.7958 182.406Z" fill="#3CB371"/>
<path opacity="0.2" d="M82.5439 223.412L88.58 263.033L85.3233 220.667L82.5439 223.412Z" fill="black"/>
<path d="M132.396 134.015C132.396 134.015 135.847 107.15 107.691 115.959C107.691 115.959 87.5828 112.268 80.9882 137.431L74.3108 163.809L77.5655 162.037L79.0826 165.354L84.3557 166.69L86.6125 162.21L87.704 167.65L130.895 171.958C130.895 171.958 111.551 160.513 111.244 140.001L114.928 143.897L132.396 134.015Z" fill="#2F2E41"/>
<path opacity="0.2" d="M100.276 401.793L90.6454 337.593L98.4783 406.899L100.276 401.793Z" fill="black"/>
<path d="M84.5369 127.087C78.5385 127.087 73.6765 122.223 73.6765 116.222C73.6765 110.222 78.5385 105.358 84.5369 105.358C90.5345 105.358 95.3972 110.222 95.3972 116.222C95.3972 122.223 90.5345 127.087 84.5369 127.087Z" fill="#2F2E41"/>
<path d="M95.7277 113.562C95.5487 110.806 94.327 108.221 92.3098 106.335C90.2934 104.448 87.6331 103.401 84.8722 103.408C85.096 103.379 85.3185 103.345 85.5471 103.33C86.9713 103.238 88.3989 103.427 89.7494 103.887C91.0999 104.347 92.347 105.068 93.4186 106.011C94.4902 106.953 95.3662 108.097 95.9956 109.378C96.625 110.659 96.9962 112.051 97.0878 113.475C97.1794 114.9 96.9893 116.328 96.5293 117.679C96.0686 119.029 95.3469 120.276 94.4041 121.348C93.462 122.42 92.3181 123.295 91.0372 123.924C89.7569 124.553 88.3645 124.924 86.941 125.015C86.7123 125.03 86.4872 125.024 86.2613 125.024C89.0008 124.677 91.5048 123.299 93.2636 121.169C95.0218 119.04 95.9033 116.32 95.7277 113.562Z" fill="#2F2E41"/>
<path opacity="0.2" d="M115.53 235.759L125.085 286.992L112.7 230.404L115.53 235.759Z" fill="black"/>
<path d="M114.934 157.911L120.503 162.111C126.239 159.223 130.541 152.542 132.104 146.166L126.035 143.102C125.558 149.606 120.943 153.93 114.934 157.911Z" fill="#EDD6D6"/>
<path d="M112.621 144.028H126.497C126.621 144.028 126.738 143.979 126.825 143.893C126.911 143.806 126.96 143.688 126.96 143.565C126.96 143.443 126.911 143.325 126.825 143.238C126.738 143.151 126.621 143.102 126.497 143.102H112.621C112.499 143.102 112.381 143.151 112.294 143.238C112.208 143.325 112.159 143.443 112.159 143.565C112.159 143.688 112.208 143.806 112.294 143.893C112.381 143.979 112.499 144.028 112.621 144.028Z" fill="white"/>
<path d="M115.397 157.911C115.472 157.911 115.546 157.892 115.613 157.856C115.68 157.821 115.737 157.769 115.78 157.707C115.822 157.645 115.848 157.572 115.856 157.497C115.864 157.422 115.854 157.346 115.826 157.276L112.125 148.021C112.103 147.964 112.069 147.913 112.027 147.869C111.984 147.826 111.934 147.791 111.878 147.767C111.823 147.742 111.763 147.73 111.701 147.729C111.641 147.728 111.58 147.74 111.524 147.762C111.467 147.784 111.416 147.818 111.372 147.861C111.329 147.903 111.294 147.954 111.27 148.01C111.247 148.066 111.234 148.126 111.233 148.187C111.233 148.247 111.244 148.308 111.267 148.365L114.967 157.619C115.001 157.705 115.061 157.779 115.137 157.831C115.214 157.882 115.304 157.911 115.397 157.911Z" fill="white"/>
<path d="M111.688 149.496C109.813 149.496 108.294 147.368 108.294 144.743C108.294 142.117 109.813 139.989 111.688 139.989C113.562 139.989 115.081 142.117 115.081 144.743C115.081 147.368 113.562 149.496 111.688 149.496Z" fill="#FFB8B8"/>
<path d="M350.83 159.061L314.684 167.336L299.413 138.521L330.319 126.449L350.83 159.061Z" fill="#2F2E41"/>
<path d="M331.626 314.178C331.626 314.178 343.245 340.815 343.245 348.565C343.245 348.565 338.645 369.632 340.098 375.444L345.182 386.341L355.832 381.982L358.737 352.923L358.252 306.429L331.626 314.178Z" fill="#FFB9B9"/>
<path d="M325.09 154.838C325.09 154.838 324.122 170.82 326.059 175.663C327.995 180.507 318.797 189.709 318.797 189.709L304.273 170.82C304.273 170.82 313.955 161.134 311.535 150.479L325.09 154.838Z" fill="#FFB9B9"/>
<path d="M355.348 265.504C355.348 265.504 369.388 291.657 355.832 289.72C342.277 287.782 346.876 264.778 346.876 264.778" fill="#E6E6E6"/>
<path d="M346.876 264.778L342.277 219.01L342.518 191.162L353.169 193.098V218.767L355.348 265.504" fill="#FFB9B9"/>
<path d="M358.495 378.592L337.677 370.359L335.256 411.525C335.256 411.525 330.9 424.118 332.352 428.961C332.352 428.961 331.384 437.194 333.805 437.678C336.225 438.163 343.003 439.131 343.487 438.647C343.971 438.163 343.971 436.71 343.971 436.71C343.971 436.71 348.812 440.1 349.296 443.975C349.296 443.975 369.629 450.271 370.113 444.459C370.597 438.647 359.947 433.804 359.947 433.804L351.717 421.212L358.495 378.592Z" fill="#2F2E41"/>
<path d="M288.297 314.178C288.297 314.178 299.916 340.815 299.916 348.565C299.916 348.565 295.316 369.632 296.769 375.444L301.853 386.341L312.503 381.982L315.408 352.923L314.923 306.429L288.297 314.178Z" fill="#FFB9B9"/>
<path d="M314.439 378.592L293.622 370.359L291.202 411.525C291.202 411.525 286.844 424.118 288.297 428.961C288.297 428.961 287.328 437.194 289.749 437.678C292.17 438.163 298.948 439.131 299.432 438.647C299.916 438.163 299.916 436.71 299.916 436.71C299.916 436.71 304.757 440.1 305.241 443.975C305.241 443.975 325.574 450.271 326.059 444.459C326.543 438.647 315.892 433.804 315.892 433.804L307.662 421.212L314.439 378.592Z" fill="#2F2E41"/>
<path d="M304.754 143.701C304.755 147.515 306.163 151.195 308.707 154.035C311.25 156.876 314.752 158.679 318.541 159.099C322.331 159.519 326.142 158.526 329.245 156.311C332.349 154.095 334.526 150.813 335.362 147.092C335.617 145.979 335.745 144.842 335.742 143.701C335.739 139.591 334.106 135.652 331.2 132.747C328.295 129.843 324.355 128.211 320.248 128.211C316.14 128.211 312.201 129.843 309.296 132.747C306.39 135.652 304.757 139.591 304.754 143.701Z" fill="#FFB9B9"/>
<path d="M318.312 174.695L306.29 168.449L300.884 172.757C300.884 172.757 287.813 172.273 282.971 178.085C278.131 183.897 275.468 198.669 275.468 198.669C275.468 198.669 291.444 195.278 289.507 208.839L292.412 201.09L295.075 207.628L327.511 218.767L342.034 194.067C342.034 194.067 351.717 191.162 355.106 197.942C355.106 197.942 354.379 173.484 344.939 172.757C338.59 172.269 333.805 172.273 333.805 172.273L328.479 171.304L325.069 170.094L318.312 174.695Z" fill="#3CB371"/>
<path d="M297.737 227.728C297.737 227.728 272.321 304.007 279.583 314.662C279.583 314.662 306.694 328.223 360.915 309.819L338.888 224.337C325.357 221.569 311.641 222.699 297.737 227.728Z" fill="#2F2E41"/>
<path d="M297.737 227.728L290.584 203.136C299.165 193.801 291.759 173.1 291.759 173.1L302.112 170.88C302.112 170.88 312.503 198.91 323.154 195.52C333.804 192.13 327.995 170.336 327.995 170.336L337.677 171.304L342.034 188.256L338.888 224.337C325.764 223.211 312 224.521 297.737 227.728Z" fill="#3CB371"/>
<path d="M285.15 264.778L281.761 218.767L280.793 191.162L291.443 193.098V218.767L293.622 265.504" fill="#FFB9B9"/>
<path d="M293.622 265.504C293.622 265.504 307.662 291.657 294.106 289.72C280.551 287.782 285.15 264.778 285.15 264.778" fill="white"/>
<path d="M275.468 198.669C275.468 198.669 277.189 173.796 291.578 173.882V202.646C291.578 202.646 280.793 196.247 275.468 198.669Z" fill="#3CB371"/>
<path d="M315.294 147.7C315.376 147.7 315.456 147.675 315.523 147.627C315.589 147.58 315.64 147.513 315.667 147.436C315.694 147.359 315.696 147.275 315.674 147.196C315.651 147.118 315.605 147.047 315.54 146.996L307.639 140.673C307.599 140.64 307.553 140.616 307.502 140.601C307.453 140.586 307.4 140.581 307.348 140.587C307.296 140.593 307.246 140.608 307.201 140.633C307.155 140.659 307.115 140.692 307.082 140.733C307.049 140.774 307.025 140.821 307.011 140.871C306.996 140.921 306.992 140.974 306.998 141.025C307.004 141.077 307.02 141.127 307.046 141.173C307.071 141.218 307.105 141.258 307.146 141.29L315.047 147.614C315.117 147.67 315.204 147.7 315.294 147.7Z" fill="white"/>
<path d="M314.695 157.185C314.87 157.399 315.043 157.612 315.225 157.81C317.321 158.761 319.604 159.233 321.904 159.191C324.206 159.149 326.469 158.595 328.529 157.568C330.59 156.542 332.396 155.069 333.816 153.257C335.236 151.444 336.235 149.339 336.74 147.092L329.253 145.714L314.695 147.092C318.03 151.155 317.627 152.562 314.695 157.185Z" fill="white"/>
<path d="M328.996 122.006C328.996 122.006 337.003 123.513 338.855 133.503C339.144 135.188 339.197 136.905 339.012 138.604C338.826 140.528 339.095 144.589 343.268 149.372C345.992 152.473 348.53 155.734 350.869 159.135L342.502 161.364L338.763 147.496C336.951 140.773 334.159 134.353 330.477 128.444L330.401 128.32C330.401 128.32 327.622 135.748 320.173 136.766L322.47 133.742C322.47 133.742 313.763 138.777 308.83 140.315C308.267 140.491 307.763 140.816 307.372 141.258C306.98 141.699 306.716 142.238 306.608 142.819C306.501 143.399 306.553 143.997 306.761 144.55C306.968 145.102 307.322 145.587 307.784 145.953C307.819 145.981 307.855 146.008 307.891 146.036C311.519 148.793 318.921 155.371 315.997 161.735C313.073 168.098 316.483 169.258 316.483 169.258L310.195 166.865L307.316 165.632L307.607 167.761L293.557 168.055C293.557 168.055 289.76 168.033 296.504 157.894C296.504 157.894 298.132 154.092 296.796 151.188C295.723 148.988 295.19 146.565 295.239 144.119C295.663 133.897 299.968 113.102 328.996 122.006Z" fill="#2F2E41"/>
<path d="M526.093 413.17C526.093 413.17 526.093 478.938 541.181 496.189C541.181 496.189 544.414 504.814 545.492 508.048C546.094 509.89 546.815 511.691 547.647 513.439V517.752C547.647 517.752 576.746 514.517 579.98 506.971L574.591 500.501C574.591 500.501 573.513 499.423 574.591 496.189C575.669 492.954 572.435 492.954 572.435 492.954L564.891 475.703L565.969 404.544L560.581 306.431L514.238 304.275L526.093 413.17Z" fill="#2F2E41"/>
<path d="M549.803 511.283C549.803 511.283 542.259 533.924 549.803 535.002C557.347 536.081 623.089 537.159 622.011 528.533C620.934 519.908 599.379 520.986 599.379 520.986L576.746 506.971L549.803 511.283Z" fill="#2F2E41"/>
<path d="M482.983 306.431C482.983 306.431 480.828 320.447 489.45 335.542C498.072 350.636 492.683 401.31 492.683 401.31L416.164 468.156C416.164 468.156 431.253 494.032 436.641 492.954C442.03 491.876 527.171 422.873 527.171 422.873L560.581 310.744L482.983 306.431Z" fill="#2F2E41"/>
<path d="M417.216 465.3C417.216 465.3 394.061 471.046 397.19 477.998C400.318 484.95 434.602 541.077 441.307 535.548C448.013 530.02 435.563 512.384 435.563 512.384L435.281 485.757L417.216 465.3Z" fill="#2F2E41"/>
<path d="M500.228 105.894C500.219 111.575 502.17 117.084 505.753 121.49C508.585 125.002 512.325 127.672 516.565 129.21C520.806 130.75 525.386 131.098 529.811 130.219C532.026 129.791 534.171 129.053 536.18 128.027C539.372 126.417 542.179 124.136 544.406 121.339C546.633 118.542 548.229 115.296 549.084 111.824C549.566 109.884 549.808 107.893 549.804 105.894C549.804 99.3178 547.193 93.0098 542.544 88.3594C537.895 83.709 531.59 81.0958 525.016 81.0958C518.442 81.0958 512.137 83.709 507.488 88.3594C502.839 93.0098 500.228 99.3178 500.228 105.894Z" fill="#A0616A"/>
<path d="M505.512 114.642L506.608 146.553L527.465 154.797C527.465 154.797 529.511 122.123 532.397 120.311C535.285 118.5 505.512 114.642 505.512 114.642Z" fill="#A0616A"/>
<path d="M532.559 158.723C532.559 158.723 503.46 129.612 495.917 130.69C488.372 131.769 488.372 135.003 488.372 137.16C488.372 139.316 490.528 140.394 488.372 141.472C486.217 142.551 484.061 141.472 484.061 144.707C484.061 147.941 464.662 180.286 471.129 215.865C477.595 251.445 485.139 268.696 481.906 288.103C478.672 307.51 480.828 311.823 480.828 311.823C480.828 311.823 561.658 318.291 562.736 310.744C563.813 303.197 559.503 307.51 564.891 302.119C570.28 296.728 568.124 296.728 568.124 293.494C568.124 290.259 544.414 158.723 532.559 158.723Z" fill="#3CB371"/>
<path d="M517.471 305.353C517.471 305.353 530.404 336.62 540.104 329.073C549.803 321.526 535.793 295.649 535.793 295.649L517.471 305.353Z" fill="white"/>
<path d="M486.217 160.879C486.217 160.879 460.896 163.779 470.323 210.308C479.75 256.836 516.394 310.744 516.394 310.744L541.182 298.884L508.849 235.272L516.394 195.38C516.394 195.38 520.705 157.645 486.217 160.879Z" fill="#3CB371"/>
<path opacity="0.2" d="M508.31 235.812L543.876 295.111L540.642 298.345L508.31 235.812Z" fill="black"/>
<path opacity="0.2" d="M489.485 263.445L518.01 310.205H508.31L489.485 263.445Z" fill="black"/>
<path opacity="0.2" d="M553.919 348.421L555.352 348.967L526.991 423.356L525.559 422.81L553.919 348.421Z" fill="black"/>
<path d="M532.406 164.642C531.56 164.642 530.874 163.956 530.874 163.109C530.874 162.262 531.56 161.575 532.406 161.575C533.254 161.575 533.939 162.262 533.939 163.109C533.939 163.956 533.254 164.642 532.406 164.642Z" fill="#D0CDE1"/>
<path d="M545.438 206.054C545.274 206.054 545.115 206.002 544.984 205.905C544.851 205.807 544.754 205.67 544.706 205.513L531.674 163.335C531.644 163.239 531.634 163.138 531.643 163.038C531.652 162.937 531.681 162.839 531.728 162.75C531.775 162.661 531.839 162.582 531.916 162.518C531.994 162.453 532.083 162.405 532.18 162.375C532.276 162.345 532.377 162.334 532.477 162.344C532.578 162.354 532.675 162.383 532.765 162.429C532.853 162.477 532.933 162.541 532.997 162.619C533.061 162.696 533.109 162.786 533.139 162.882L546.17 205.061C546.206 205.176 546.214 205.297 546.194 205.415C546.174 205.534 546.126 205.646 546.055 205.742C545.984 205.839 545.891 205.918 545.783 205.971C545.676 206.026 545.558 206.054 545.438 206.054Z" fill="#D0CDE1"/>
<path d="M529.986 124.887L536.18 130.783C542.56 127.571 548.722 118.916 550.461 111.824L542.334 108.417C541.803 115.651 536.67 120.46 529.986 124.887Z" fill="#EDD6D6"/>
<path d="M528.441 111.505C528.466 111.505 528.491 111.503 528.515 111.5L542.92 109.441C542.988 109.432 543.052 109.409 543.11 109.374C543.168 109.34 543.219 109.294 543.26 109.241C543.301 109.186 543.33 109.125 543.347 109.059C543.363 108.994 543.367 108.926 543.358 108.859C543.348 108.792 543.326 108.727 543.292 108.67C543.257 108.611 543.212 108.56 543.157 108.519C543.104 108.479 543.042 108.45 542.976 108.433C542.911 108.416 542.843 108.412 542.776 108.422L528.37 110.48C528.241 110.499 528.124 110.565 528.042 110.666C527.96 110.767 527.92 110.896 527.929 111.026C527.938 111.156 527.996 111.277 528.091 111.366C528.186 111.455 528.311 111.505 528.441 111.505Z" fill="white"/>
<path d="M530.5 124.887C530.59 124.887 530.679 124.864 530.756 124.819C530.834 124.774 530.9 124.71 530.944 124.632C530.99 124.555 531.014 124.466 531.015 124.377C531.015 124.287 530.993 124.198 530.949 124.12L526.175 115.62C526.142 115.56 526.098 115.508 526.045 115.467C525.992 115.425 525.931 115.394 525.866 115.375C525.801 115.356 525.733 115.352 525.665 115.359C525.598 115.367 525.534 115.389 525.474 115.422C525.415 115.455 525.364 115.5 525.322 115.553C525.28 115.607 525.249 115.667 525.231 115.733C525.213 115.797 525.208 115.866 525.216 115.933C525.224 116 525.246 116.065 525.279 116.124L530.052 124.625C530.097 124.704 530.162 124.771 530.241 124.817C530.32 124.863 530.409 124.887 530.5 124.887Z" fill="white"/>
<path d="M513.796 120.794C515.803 119.732 518.134 119.514 520.306 118.854C528.077 116.493 533.282 107.705 531.621 99.7525C531.314 98.7322 531.175 97.6691 531.212 96.604C531.503 94.2492 533.912 92.7294 536.222 92.1892C538.532 91.6498 540.99 91.7283 543.198 90.8603C546.607 89.5203 548.872 86.0156 549.362 82.3842C549.853 78.7534 548.776 75.0496 547.025 71.8316L546.19 74.2339C544.918 73.1564 543.973 71.7427 543.464 70.1547C542.515 70.3138 541.624 70.7141 540.874 71.3169C540.125 71.9198 539.543 72.7052 539.184 73.5973C537.845 74.3876 537.651 71.1426 536.172 70.6645C535.552 70.464 534.915 70.8443 534.326 71.1199C531.345 72.5109 527.881 71.3218 524.683 70.5508C519.145 69.2219 513.373 69.215 507.832 70.5308C504.151 71.4093 500.508 72.9387 497.874 75.6566C495.711 77.8888 494.363 80.7755 493.215 83.6649C490.39 90.7776 488.524 98.4738 489.456 106.071C490.233 112.287 492.833 118.134 496.928 122.874C499.06 125.333 506.02 133.91 509.836 132.448C514.631 130.61 508.147 123.782 513.796 120.794Z" fill="#2F2E41"/>
</svg>
