<svg width="183" height="260" viewBox="0 0 183 260" fill="none" xmlns="http://www.w3.org/2000/svg">
<g clip-path="url(#clip0)">
<path d="M124.568 115.554H68.806V172.969H124.568V115.554Z" fill="#CCCCCC"/>
<path d="M42.8875 237.419L39.9817 258.825H12.4673L9.5615 237.419H42.8875Z" fill="#2F2E41" stroke="#827272"/>
<path d="M97.4224 243.095L96.4643 255.155C96.4207 255.7 96.5049 256.248 96.7102 256.762C96.916 257.276 97.2384 257.743 97.6561 258.132C98.0733 258.522 98.5767 258.825 99.1318 259.02C99.6868 259.216 100.281 259.3 100.875 259.267L107.601 258.891C107.913 258.874 108.217 258.794 108.491 258.656C108.765 258.518 109.003 258.327 109.187 258.095C109.372 257.863 109.499 257.596 109.559 257.314C109.619 257.032 109.611 256.741 109.535 256.462L105.801 242.709L97.4224 243.095Z" fill="#2F2E41"/>
<path d="M153.689 250.226C161.606 251.932 167.261 254.356 170.976 257.636C172.299 258.796 174.03 259.479 175.855 259.562C178.185 259.675 180.09 259.434 181.522 258.845H181.522C181.889 258.697 182.206 258.46 182.44 258.16C182.674 257.861 182.816 257.509 182.852 257.141C182.896 256.768 182.83 256.391 182.662 256.049C182.494 255.706 182.229 255.412 181.895 255.196L163.119 242.894L155.143 245.832L153.283 247.545C153.082 247.731 152.93 247.957 152.839 248.206C152.749 248.454 152.722 248.719 152.761 248.979C152.8 249.239 152.905 249.487 153.066 249.703C153.227 249.919 153.44 250.099 153.689 250.226Z" fill="#2F2E41"/>
<path d="M129.325 53.3289L75.6545 52.8715C75.7899 45.6732 77.6087 38.6049 81.584 32.2797C84.1952 28.1255 84.1389 23.6045 83.5093 19.7958C82.5386 13.918 84.7964 7.90414 89.814 4.16252C93.6489 1.29815 98.4885 -0.176311 103.421 0.0168317L104.464 0.0568107C107.858 0.186714 111.163 1.0998 114.074 2.71225C116.986 4.32469 119.411 6.58482 121.126 9.28508C122.87 12.1678 123.574 15.4863 123.135 18.7612C122.795 21.8426 123.608 24.9554 125.512 28.0978C128.797 34.9981 129.509 43.8279 129.325 53.3289Z" fill="#2F2E41"/>
<path d="M165.232 243.536L154.699 246.066L103.407 143.17L106.612 243.536H96.0791C84.8238 196.316 64.5027 141.82 73.6385 124.615L128.137 121.663L165.232 243.536Z" fill="#2F2E41"/>
<path d="M102.949 36.0563C110.79 36.0563 117.146 30.2034 117.146 22.9834C117.146 15.7635 110.79 9.91052 102.949 9.91052C95.1078 9.91052 88.7515 15.7635 88.7515 22.9834C88.7515 30.2034 95.1078 36.0563 102.949 36.0563Z" fill="#FFB9B9"/>
<path d="M115.314 47.0208L91.9572 45.7556C94.2465 40.9179 95.161 36.2595 94.2475 31.8393H111.65C111.611 35.2331 113.445 41.1038 115.314 47.0208Z" fill="#FFB9B9"/>
<path d="M129.969 125.458L78.6768 128.832L83.9433 45.1231L92.8738 42.8036L102.949 44.9121L113.024 40.2732L119.436 42.3821L129.969 125.458Z" fill="#3CB371"/>
<path d="M87.3777 185.762L52.3431 178.382C62.7609 146.572 81.5288 73.798 75.4705 47.8643L93.7893 40.2734L87.3777 185.762Z" fill="#E6E6E6"/>
<path d="M70.4327 93.8301L57.1518 86.2393L68.4785 55.6932C69.7418 52.541 72.1613 49.8948 75.3189 48.2116L79.1346 46.1773L76.8443 76.9619L70.4327 93.8301Z" fill="#E6E6E6"/>
<path d="M160.424 178.804C149.366 184.695 121.725 187.979 109.589 183.864C108.696 155.123 106.945 73.8246 112.566 39.43L132.717 47.0208L130.885 69.793C121.251 89.2734 149.225 157.124 160.424 178.804Z" fill="#E6E6E6"/>
<path d="M158.821 90.0351L146.456 86.2397L129.969 68.9495L132.717 47.0208L160.195 82.4443L158.821 90.0351Z" fill="#E6E6E6"/>
<path d="M120.069 106.449C120.271 107.267 120.817 107.977 121.588 108.424C122.358 108.871 123.289 109.019 124.177 108.835L134.674 106.647L133.157 100.477L122.66 102.665C121.772 102.851 120.999 103.354 120.513 104.063C120.028 104.773 119.868 105.631 120.069 106.449Z" fill="#FFB9B9"/>
<path d="M115.314 19.6098C107.428 16.624 99.6402 16.4079 91.9573 19.1881L88.7515 8.64542H118.062L115.314 19.6098Z" fill="#2F2E41"/>
<path d="M129.511 99.3125L135.465 109.433C145.478 106.861 154.157 98.7538 162.485 89.1912L160.195 82.4443L145.998 85.8177L129.511 99.3125Z" fill="#E6E6E6"/>
<path d="M125.16 78.4379H123.328C123.328 54.5799 117.994 37.954 112.795 37.954L112.337 36.2672C116.999 36.2672 119.971 43.1869 121.644 48.992C123.911 56.8616 125.16 67.319 125.16 78.4379Z" fill="#3F3D56"/>
<path d="M83.0272 72.5339H81.1952C81.1952 50.6841 86.5666 37.1106 94.4762 37.1106L94.0184 38.7974C88.5472 38.7974 83.0272 49.2292 83.0272 72.5339Z" fill="#3F3D56"/>
<path d="M124.244 83.0768C126.773 83.0768 128.824 81.1886 128.824 78.8593C128.824 76.5305 126.773 74.6424 124.244 74.6424C121.715 74.6424 119.665 76.5305 119.665 78.8593C119.665 81.1886 121.715 83.0768 124.244 83.0768Z" fill="#3F3D56"/>
<path d="M75.6996 82.6548H73.8676C73.8676 76.609 77.5656 71.6904 82.1112 71.6904V73.3774C78.5759 73.3774 75.6996 77.5393 75.6996 82.6548Z" fill="#3F3D56"/>
<path d="M90.3544 82.6548H88.5228C88.5228 77.5393 85.6465 73.3774 82.1112 73.3774V71.6904C86.6568 71.6904 90.3544 76.609 90.3544 82.6548Z" fill="#3F3D56"/>
<path d="M89.4388 84.7633C90.4502 84.7633 91.2704 84.008 91.2704 83.0768C91.2704 82.1451 90.4502 81.3898 89.4388 81.3898C88.427 81.3898 87.6068 82.1451 87.6068 83.0768C87.6068 84.008 88.427 84.7633 89.4388 84.7633Z" fill="#3F3D56"/>
<path d="M74.7836 84.7633C75.7954 84.7633 76.6157 84.008 76.6157 83.0768C76.6157 82.1451 75.7954 81.3898 74.7836 81.3898C73.7718 81.3898 72.9516 82.1451 72.9516 83.0768C72.9516 84.008 73.7718 84.7633 74.7836 84.7633Z" fill="#3F3D56"/>
<path d="M51.8853 67.5655L63.315 69.4447L89.4389 103.649L75.5602 100.642L51.8853 67.5655Z" fill="#3CB371"/>
<path d="M49.8579 67.1463C49.6837 67.1491 49.5134 67.1944 49.3649 67.2779C49.2163 67.362 49.0949 67.481 49.0134 67.6224C48.9319 67.7643 48.8932 67.9235 48.9015 68.0841C48.9097 68.2442 48.9645 68.3992 49.0602 68.5331L73.4793 102.65C73.6157 102.841 73.8261 102.976 74.0674 103.028L85.4291 105.49C85.6207 105.531 85.8214 105.518 86.0049 105.452C86.1879 105.386 86.3451 105.27 86.4556 105.12C86.5656 104.97 86.6239 104.793 86.6219 104.612C86.6198 104.43 86.5585 104.254 86.4455 104.106L59.6342 69.0022C59.5617 68.9066 59.4694 68.8253 59.3625 68.7623C59.2555 68.6998 59.1359 68.6573 59.0112 68.6367L50.041 67.1617C49.9805 67.1519 49.9193 67.1468 49.8579 67.1463Z" fill="#3F3D56"/>
<path d="M65.0907 91.5391L65.7695 97.8342L76.4788 96.8554C77.3852 96.7723 78.2191 96.3611 78.7965 95.7127C79.3738 95.0639 79.6476 94.2302 79.5579 93.3956C79.4676 92.5609 79.0215 91.7931 78.3169 91.2614C77.6123 90.7297 76.7069 90.4777 75.8005 90.5603L65.0907 91.5391Z" fill="#FFB9B9"/>
<path d="M55.778 90.81C55.7937 92.9568 56.73 95.0102 58.3826 96.5239C60.0357 98.0373 62.2707 98.8882 64.602 98.8906H66.3626L67.6446 89.0526L57.0301 85.5339L55.778 90.81Z" fill="#E6E6E6"/>
<path d="M26.8285 238.058C26.7622 238.052 26.6886 238.045 26.6081 238.037C26.1859 237.994 25.5725 237.923 24.8128 237.809C23.2925 237.582 21.19 237.186 18.8626 236.511C14.1929 235.158 8.68897 232.705 5.12911 228.315C1.57444 223.931 0.587987 218.391 0.505771 213.9C0.464766 211.661 0.649058 209.697 0.843605 208.295C0.940825 207.594 1.04046 207.034 1.11544 206.651C1.12716 206.591 1.13827 206.535 1.14867 206.484C1.21494 206.49 1.2885 206.498 1.36901 206.506C1.79119 206.549 2.40458 206.62 3.16435 206.733C4.68458 206.961 6.78714 207.357 9.1145 208.031C13.7842 209.384 19.2881 211.837 22.848 216.227C26.4027 220.611 27.3891 226.151 27.4713 230.642C27.5124 232.882 27.3281 234.845 27.1335 236.248C27.0363 236.949 26.9367 237.509 26.8617 237.892C26.85 237.952 26.8389 238.007 26.8285 238.058Z" fill="#3CB371" stroke="#3CB371"/>
<path d="M41.9778 232.018C37.1544 237.967 27.1418 238.593 27.1418 238.593C27.1418 238.593 24.9496 229.575 29.7731 223.627C34.5965 217.679 44.6091 217.052 44.6091 217.052C44.6091 217.052 46.8013 226.07 41.9778 232.018Z" fill="#3CB371"/>
</g>
<defs>
<clipPath id="clip0">
<rect width="183" height="260" fill="white"/>
</clipPath>
</defs>
</svg>
