<svg width="41" height="141" viewBox="0 0 41 141" fill="none" xmlns="http://www.w3.org/2000/svg">
<path d="M32.5729 17.243L17.1562 20.7784L10.6425 8.46744L23.8247 3.30994L32.5729 17.243Z" fill="#2F2E41"/>
<path d="M24.382 83.515C24.382 83.515 29.3378 94.8955 29.3378 98.2063C29.3378 98.2063 27.3759 107.207 27.9954 109.69L30.1637 114.346L34.7063 112.483L35.9452 100.068L35.7387 80.2042L24.382 83.515Z" fill="#FFB9B9"/>
<path d="M21.5945 15.4387C21.5945 15.4387 21.1815 22.2669 22.0075 24.3362C22.8334 26.4054 18.9101 30.337 18.9101 30.337L12.7156 22.2669C12.7156 22.2669 16.8452 18.1287 15.8127 13.5764L21.5945 15.4387Z" fill="#FFB9B9"/>
<path d="M34.4997 62.7195C34.4997 62.7195 40.488 73.8932 34.7062 73.0655C28.9248 72.2378 30.8863 62.4093 30.8863 62.4093" fill="#E6E6E6"/>
<path d="M30.8863 62.4093L28.9247 42.8555L29.0278 30.9578L33.5707 31.7852V42.7518L34.4997 62.7196" fill="#FFB9B9"/>
<path d="M35.8421 111.035L26.963 107.518L25.9305 125.106C25.9305 125.106 24.0724 130.486 24.6918 132.555C24.6918 132.555 24.2788 136.072 25.3113 136.279C26.3435 136.486 29.2344 136.9 29.4409 136.693C29.6473 136.486 29.6473 135.865 29.6473 135.865C29.6473 135.865 31.7123 137.314 31.9187 138.969C31.9187 138.969 40.5911 141.659 40.7976 139.176C41.0041 136.693 36.4616 134.624 36.4616 134.624L32.9512 129.244L35.8421 111.035Z" fill="#2F2E41"/>
<path d="M5.90137 83.515C5.90137 83.515 10.8572 94.8955 10.8572 98.2063C10.8572 98.2063 8.89535 107.207 9.51483 109.69L11.6831 114.346L16.2257 112.483L17.4646 100.068L17.2581 80.2042L5.90137 83.515Z" fill="#FFB9B9"/>
<path d="M17.0517 111.035L8.1728 107.518L7.14033 125.106C7.14033 125.106 5.28191 130.486 5.90139 132.555C5.90139 132.555 5.48841 136.072 6.52087 136.279C7.55333 136.486 10.4442 136.9 10.6507 136.693C10.8572 136.486 10.8572 135.865 10.8572 135.865C10.8572 135.865 12.9221 137.314 13.1286 138.969C13.1286 138.969 21.801 141.659 22.0075 139.176C22.214 136.693 17.6711 134.624 17.6711 134.624L14.1611 129.244L17.0517 111.035Z" fill="#2F2E41"/>
<path d="M12.9206 10.6807C12.9212 12.3102 13.5216 13.8822 14.6066 15.0958C15.6914 16.3097 17.185 17.08 18.8011 17.2593C20.4175 17.4385 22.043 17.0144 23.3665 16.0681C24.6903 15.1214 25.6191 13.7192 25.9757 12.1294C26.0844 11.6541 26.1387 11.1681 26.1376 10.6807C26.1364 8.9249 25.4397 7.24184 24.2004 6.00088C22.9612 4.75993 21.281 4.06262 19.5289 4.06262C17.7771 4.06262 16.097 4.75993 14.8578 6.00088C13.6185 7.24184 12.9218 8.9249 12.9206 10.6807Z" fill="#FFB9B9"/>
<path d="M18.7036 23.9223L13.5759 21.2541L11.2702 23.0946C11.2702 23.0946 5.6949 22.8877 3.62998 25.3708C1.56535 27.8539 0.429504 34.1649 0.429504 34.1649C0.429504 34.1649 7.24373 32.7164 6.41776 38.51L7.65672 35.1995L8.79228 37.9929L22.6269 42.7518L28.8214 32.199C28.8214 32.199 32.9512 30.9577 34.3967 33.8544C34.3967 33.8544 34.0868 23.4052 30.0603 23.0946C27.3524 22.8859 25.3113 22.8877 25.3113 22.8877L23.0399 22.4739L21.5854 21.9567L18.7036 23.9223Z" fill="#3CB371"/>
<path d="M9.92781 46.5801C9.92781 46.5801 -0.912563 79.1696 2.18481 83.722C2.18481 83.722 13.748 89.5155 36.8742 81.6527L27.4793 45.1316C21.7081 43.9489 15.8579 44.4317 9.92781 46.5801Z" fill="#2F2E41"/>
<path d="M9.92783 46.5801L6.87686 36.0734C10.5367 32.0851 7.37796 23.2409 7.37796 23.2409L11.7939 22.2925C11.7939 22.2925 16.2257 34.2682 20.7685 32.8198C25.311 31.3716 22.8334 22.06 22.8334 22.06L26.963 22.4738L28.8214 29.7162L27.4793 45.1316C21.8817 44.6503 16.0113 45.2102 9.92783 46.5801Z" fill="#3CB371"/>
<path d="M4.55935 62.4093L3.11391 42.7518L2.70093 30.9578L7.24343 31.7852V42.7518L8.17279 62.7196" fill="#FFB9B9"/>
<path d="M8.17277 62.7195C8.17277 62.7195 14.161 73.8932 8.37927 73.0655C2.59779 72.2378 4.55932 62.4093 4.55932 62.4093" fill="white"/>
<path d="M0.429504 34.1649C0.429504 34.1649 1.16354 23.5385 7.30101 23.5753V35.8642C7.30101 35.8642 2.70091 33.1303 0.429504 34.1649Z" fill="#3CB371"/>
<path d="M17.4162 12.3893C17.4511 12.3893 17.4852 12.3784 17.5137 12.3581C17.5422 12.3381 17.5636 12.3092 17.5751 12.2763C17.5868 12.2433 17.5877 12.2074 17.5783 12.1738C17.5686 12.1403 17.5486 12.1103 17.5213 12.0885L14.1514 9.38698C14.1343 9.37286 14.1143 9.36255 14.0929 9.35607C14.0718 9.34989 14.0494 9.34784 14.0271 9.35019C14.0051 9.35255 13.9836 9.35932 13.9643 9.36991C13.9446 9.3808 13.9275 9.39522 13.9137 9.41259C13.8996 9.42996 13.8894 9.44998 13.8832 9.47146C13.877 9.49295 13.8753 9.51532 13.8779 9.5374C13.8802 9.55947 13.8873 9.58096 13.8982 9.60038C13.9087 9.61981 13.9234 9.63688 13.9408 9.65072L17.3107 12.3525C17.3407 12.3764 17.3777 12.3893 17.4162 12.3893Z" fill="white"/>
<path d="M17.1609 16.4416C17.2352 16.5328 17.3092 16.624 17.3868 16.7085C18.2809 17.1147 19.2543 17.3163 20.2357 17.2984C21.2173 17.2804 22.1825 17.0438 23.0613 16.6052C23.9402 16.1666 24.7103 15.5373 25.3163 14.7632C25.922 13.9888 26.3479 13.0893 26.5632 12.1294L23.3701 11.5407L17.1609 12.1294C18.5831 13.8652 18.4113 14.4662 17.1609 16.4416Z" fill="white"/>
<path d="M23.2602 1.41173C23.2602 1.41173 26.6754 2.05546 27.4652 6.32375C27.5886 7.04342 27.6112 7.77722 27.5322 8.50307C27.4532 9.32488 27.5677 11.06 29.3477 13.1034C30.5094 14.4285 31.5918 15.8217 32.5893 17.2748L29.0208 18.227L27.4262 12.3022C26.6534 9.42967 25.4626 6.68697 23.892 4.16208L23.8594 4.10939C23.8594 4.10939 22.6742 7.28272 19.4972 7.71776L20.4768 6.42559C20.4768 6.42559 16.7632 8.57695 14.6592 9.23393C14.4192 9.30899 14.2039 9.44821 14.0371 9.63689C13.87 9.82527 13.7575 10.0557 13.7116 10.3036C13.6658 10.5514 13.6881 10.8072 13.7766 11.0433C13.865 11.279 14.0159 11.4866 14.213 11.6428C14.228 11.6546 14.2433 11.6664 14.2589 11.6782C15.8062 12.8561 18.9632 15.6665 17.716 18.3854C16.4689 21.104 17.9234 21.5996 17.9234 21.5996L15.2414 20.5774L14.0136 20.0505L14.1375 20.96L8.14488 21.0857C8.14488 21.0857 6.52555 21.076 9.40204 16.7444C9.40204 16.7444 10.0961 15.1202 9.52629 13.8793C9.06895 12.9394 8.84132 11.9042 8.86217 10.859C9.0434 6.49182 10.8792 -2.39268 23.2602 1.41173Z" fill="#2F2E41"/>
</svg>
